<svg width="73" height="32" viewBox="0 0 73 32" fill="none" xmlns="http://www.w3.org/2000/svg">
<path d="M13.949 11.5278L14.209 13.9495C14.7291 13.0024 15.4334 12.2597 16.3218 11.7215C17.2103 11.1833 18.2396 10.9142 19.4098 10.9142C20.5366 10.9142 21.4793 11.1618 22.2377 11.6569C22.9961 12.152 23.462 12.8409 23.6354 13.7235C24.2205 12.8624 24.9356 12.1843 25.7807 11.6892C26.6475 11.1726 27.5576 10.9142 28.5111 10.9142C29.8763 10.9142 30.949 11.3017 31.7291 12.0767C32.5309 12.8301 32.9426 13.8096 32.9643 15.0151V25.1867H29.3562V16.4036C29.3129 15.7578 29.1612 15.2196 28.9012 14.7891C28.6411 14.337 28.1644 14.0895 27.471 14.0464C26.6908 14.0464 26.0191 14.294 25.4557 14.7891C24.8923 15.2627 24.448 15.887 24.123 16.662C23.8196 17.4154 23.6679 18.2119 23.6679 19.0515V25.1867H19.9949V16.4036C19.9732 15.7578 19.8215 15.2196 19.5398 14.7891C19.2581 14.337 18.7597 14.0895 18.0446 14.0464C17.2861 14.0464 16.6252 14.294 16.0618 14.7891C15.4984 15.2627 15.065 15.887 14.7616 16.662C14.4582 17.4154 14.3065 18.2119 14.3065 19.0515V25.1867H10.666V11.5278H13.949Z" fill="#262626"/>
<path d="M43.5882 25.5419C42.288 25.5419 41.1287 25.2405 40.1102 24.6377C39.0917 24.035 38.29 23.1847 37.7049 22.0868C37.1198 20.9674 36.8272 19.6542 36.8272 18.1473C36.8272 16.6189 37.1415 15.3165 37.7699 14.2402C38.3983 13.1638 39.2543 12.3458 40.3378 11.7861C41.4212 11.2048 42.6564 10.9142 44.0433 10.9142C45.0401 10.9142 45.9827 11.108 46.8712 11.4955C47.7813 11.8614 48.4964 12.3673 49.0165 13.0131V0H52.6245V25.1867H48.984V23.3461C48.3123 23.9919 47.5213 24.5193 46.6112 24.9284C45.7227 25.3374 44.7151 25.5419 43.5882 25.5419ZM44.7584 22.4743C45.8202 22.4743 46.7087 22.2159 47.4238 21.6993C48.1606 21.1826 48.6806 20.4615 48.984 19.5358V16.6297C48.724 15.7901 48.2039 15.1012 47.4238 14.5631C46.6653 14.0249 45.7769 13.7558 44.7584 13.7558C43.9783 13.7558 43.2632 13.9495 42.6131 14.337C41.9847 14.703 41.4754 15.2089 41.0854 15.8547C40.6953 16.5005 40.5003 17.2432 40.5003 18.0827C40.5003 18.9008 40.6953 19.6435 41.0854 20.3108C41.4754 20.9781 41.9847 21.5056 42.6131 21.893C43.2632 22.2805 43.9783 22.4743 44.7584 22.4743Z" fill="#262626"/>
<path d="M64.504 32C63.3772 32 62.4129 31.8708 61.6111 31.6125C60.8093 31.3542 60.0942 31.0205 59.4658 30.6115C58.859 30.2025 58.2848 29.7612 57.743 29.2876L59.8883 26.8012C60.5168 27.3824 61.1777 27.8668 61.8711 28.2543C62.5862 28.6418 63.4422 28.8355 64.439 28.8355C65.7825 28.8355 66.8552 28.5126 67.657 27.8668C68.4588 27.221 68.8705 26.3276 68.8921 25.1867V22.894C68.4588 23.6475 67.7761 24.2825 66.8443 24.7992C65.9125 25.2943 64.7857 25.5419 63.4639 25.5419C62.207 25.5419 61.0477 25.2297 59.9859 24.6054C58.924 23.9596 58.0789 23.0878 57.4505 21.9899C56.8221 20.892 56.5078 19.6542 56.5078 18.2765C56.5078 16.8557 56.8437 15.5964 57.5155 14.4985C58.1873 13.3791 59.0649 12.5072 60.1484 11.8829C61.2319 11.2371 62.3912 10.9142 63.6264 10.9142C64.8399 10.9142 65.9125 11.1295 66.8443 11.56C67.7978 11.9691 68.4913 12.4857 68.9247 13.11L69.1847 11.5278H72.5327V25.2513C72.5327 26.5214 72.186 27.6623 71.4925 28.6741C70.8208 29.7074 69.8781 30.5146 68.6646 31.0959C67.4511 31.6986 66.0642 32 64.504 32ZM60.1809 18.1796C60.1809 18.9976 60.3651 19.7403 60.7335 20.4077C61.1235 21.075 61.6436 21.6024 62.2937 21.9899C62.9655 22.3774 63.7131 22.5711 64.5365 22.5711C65.62 22.5711 66.5301 22.3128 67.2669 21.7962C68.0254 21.258 68.5671 20.5584 68.8921 19.6973V16.7265C68.6104 15.8655 68.0687 15.1766 67.2669 14.6599C66.4868 14.1433 65.5767 13.885 64.5365 13.885C63.3013 13.885 62.2612 14.2832 61.4161 15.0797C60.5926 15.8762 60.1809 16.9095 60.1809 18.1796Z" fill="#262626"/>
<path d="M0 21.8667C0 20.9924 0.337778 20.2405 1.01333 19.611C1.68889 18.9815 2.43556 18.6667 3.25333 18.6667C4 18.6667 4.71111 18.9815 5.38667 19.611C6.06222 20.2405 6.4 20.9924 6.4 21.8667C6.4 22.846 6.06222 23.6329 5.38667 24.2274C4.71111 24.787 4 25.0667 3.25333 25.0667C2.43556 25.0667 1.68889 24.787 1.01333 24.2274C0.337778 23.6329 0 22.846 0 21.8667Z" fill="#262626"/>
</svg>
